<svg width="28" height="28" viewBox="0 0 28 28" fill="none" xmlns="http://www.w3.org/2000/svg">
<circle cx="14" cy="14" r="14" fill="url(#paint0_radial_766_4)"/>
<path d="M5.10846 17.1281L9.22095 10.6041C9.37566 10.3585 9.57961 10.1476 9.81993 9.98479C10.0602 9.82197 10.3317 9.71073 10.6172 9.65811C10.9027 9.60549 11.1959 9.61262 11.4785 9.67906C11.7611 9.7455 12.0268 9.86981 12.259 10.0441L15.5315 12.4976C15.6775 12.607 15.8553 12.6658 16.0378 12.6652C16.2203 12.6646 16.3976 12.6045 16.543 12.4941L20.96 9.14113C21.548 8.69313 22.318 9.40013 21.926 10.0266L17.81 16.5471C17.6552 16.7928 17.4513 17.0036 17.211 17.1665C16.9707 17.3293 16.6992 17.4405 16.4137 17.4932C16.1282 17.5458 15.835 17.5386 15.5524 17.4722C15.2698 17.4058 15.0041 17.2815 14.772 17.1071L11.4995 14.6536C11.3534 14.5443 11.1756 14.4854 10.9931 14.4861C10.8106 14.4867 10.6333 14.5467 10.488 14.6571L6.07096 18.0101C5.48296 18.4581 4.71296 17.7546 5.10846 17.1281Z" fill="white"/>
<defs>
<radialGradient id="paint0_radial_766_4" cx="0" cy="0" r="1" gradientUnits="userSpaceOnUse" gradientTransform="translate(4.69 27.9992) scale(30.8 30.7992)">
<stop stop-color="#0099FF"/>
<stop offset="0.6" stop-color="#A033FF"/>
<stop offset="0.9" stop-color="#FF5280"/>
<stop offset="1" stop-color="#FF7061"/>
</radialGradient>
</defs>
</svg>
