<svg width="28" height="28" viewBox="0 0 28 28" fill="none" xmlns="http://www.w3.org/2000/svg">
<path d="M27.9996 14C28.0129 15.8338 27.6606 17.652 26.963 19.35C26.2653 21.0479 25.2362 22.592 23.9349 23.8934C22.6336 25.1947 21.0859 26.2275 19.3808 26.9323C17.6757 27.6371 15.847 28 14 28C12.153 28 10.3243 27.6371 8.61924 26.9323C6.91415 26.2275 5.36636 25.1947 4.06506 23.8934C2.76376 22.592 1.73466 21.0479 1.03705 19.35C0.339438 17.652 -0.0128901 15.8338 0.000360316 14C-0.0128901 12.1662 0.339438 10.348 1.03705 8.65005C1.73466 6.95208 2.76376 5.40796 4.06506 4.10662C5.36636 2.80528 6.91415 1.77246 8.61924 1.06766C10.3243 0.362854 12.153 0 14 0C15.847 0 17.6757 0.362854 19.3808 1.06766C21.0859 1.77246 22.6336 2.80528 23.9349 4.10662C25.2362 5.40796 26.2653 6.95208 26.963 8.65005C27.6606 10.348 28.0129 12.1662 27.9996 14Z" fill="#37C837"/>
<path d="M17.9934 22.8801C18.786 22.6348 19.6512 22.3019 19.9425 22.13C20.1382 22.0146 20.1658 21.9756 20.098 21.9105C19.6075 21.4387 16.1562 18.4362 16.1258 18.4549C16.1035 18.4686 16.0472 18.6826 16.0006 18.9305C15.9086 19.4199 15.822 19.5318 15.5353 19.5317C15.2994 19.5317 15.1437 19.4003 14.9175 19.0105C14.8189 18.8406 14.6595 18.6015 14.5632 18.479C14.467 18.3566 14.2725 18.0508 14.131 17.7994C13.9895 17.548 13.7409 17.1338 13.5785 16.8789C13.2061 16.2946 12.7729 15.5824 12.6089 15.2851C12.5396 15.1592 12.3684 14.9026 12.2285 14.715C12.0886 14.5273 11.9103 14.2492 11.8322 14.0971C11.7542 13.945 11.5303 13.5841 11.3349 13.2953C11.1394 13.0065 10.9045 12.6232 10.8129 12.4437C10.7213 12.2642 10.553 11.9722 10.439 11.795C10.1769 11.3873 9.87169 10.7815 9.81896 10.5642C9.78681 10.4317 9.81388 10.3641 9.95001 10.2369C10.1336 10.0654 10.1456 10.0654 10.7296 10.2401C10.9271 10.2992 11.1015 10.3348 11.1172 10.3193C11.1453 10.2914 9.80895 5.14828 9.76117 5.10092C9.72615 5.06614 8.16147 6.37098 8.16147 6.43501C8.16147 6.46402 8.02528 6.62231 7.85884 6.78677C7.69238 6.95122 7.45616 7.24341 7.33389 7.43608C7.14114 7.7398 7.10242 7.86715 7.04275 8.39383C6.85333 10.0653 7.29738 12.5363 8.14014 14.5002C8.5938 15.5574 8.86636 16.0875 9.18853 16.5388C9.33421 16.7428 9.53023 17.0627 9.62414 17.2496C10.1287 18.2538 11.7189 20.0845 12.8286 20.9389C13.5943 21.5284 15.2192 22.5827 15.5948 22.7337C16.6931 23.1753 16.9826 23.193 17.9934 22.8802L17.9934 22.8801ZM20.7945 20.9853C21.0326 20.4043 21.0393 20.3704 20.9346 20.2723C20.8461 20.1895 18.0579 17.7788 17.6731 17.4525C17.5832 17.3763 17.4928 17.4045 16.9334 17.6832C16.3968 17.9506 16.3098 18.0137 16.3825 18.0832C16.648 18.3371 20.5114 21.6283 20.5265 21.6133C20.5364 21.6035 20.657 21.3209 20.7945 20.9853ZM12.2258 9.8741C12.4896 9.67458 12.7047 9.50775 12.7038 9.50338C12.6322 9.17217 11.5895 5.12301 11.5711 5.10466C11.5353 5.06914 10.2044 4.88381 10.1773 4.9106C10.1604 4.92736 10.5258 6.33004 11.5289 10.0993C11.6 10.3664 11.5559 10.3807 12.2258 9.8741Z" fill="white"/>
</svg>
